<?xml version="1.0" standalone="no"?>
<!DOCTYPE svg PUBLIC "-//W3C//DTD SVG 20010904//EN"
 "http://www.w3.org/TR/2001/REC-SVG-20010904/DTD/svg10.dtd">
<svg version="1.0" xmlns="http://www.w3.org/2000/svg"
 width="256.000000pt" height="256.000000pt" viewBox="0 0 256.000000 256.000000"
 preserveAspectRatio="xMidYMid meet">
<metadata>
Created by potrace 1.14, written by Peter Selinger 2001-2017
</metadata>
<g transform="translate(0.000000,256.000000) scale(0.100000,-0.100000)"
fill="#000000" stroke="none">
<path d="M1224 2546 c-35 -15 -284 -252 -284 -270 0 -6 62 -73 138 -149 l137
-137 56 0 c42 0 70 -7 110 -28 69 -36 99 -89 99 -176 l0 -61 135 -135 134
-134 68 -1 c83 0 131 -26 168 -89 47 -80 27 -201 -41 -255 -15 -12 -49 -28
-75 -35 -42 -13 -55 -13 -97 -1 -88 26 -146 111 -140 204 l4 56 -120 123 c-66
67 -123 122 -128 122 -4 0 -8 -152 -8 -338 l0 -338 30 -22 c82 -61 93 -207 22
-285 -72 -80 -229 -72 -295 14 -64 86 -55 182 25 262 l48 48 0 347 0 348 -30
17 c-59 35 -104 150 -82 208 10 24 2 34 -136 172 l-147 147 -331 -333 c-422
-425 -469 -475 -477 -517 -17 -85 -28 -72 581 -681 312 -311 587 -580 611
-598 54 -38 109 -41 161 -10 44 27 1125 1108 1168 1168 44 60 44 112 1 172
-18 24 -287 299 -598 610 -483 484 -572 569 -606 578 -50 14 -63 13 -101 -3z"/>
</g>
</svg>
